<svg xmlns="http://www.w3.org/2000/svg" width="36" height="36" viewBox="0 0 36 36">
  <g id="Group_4264" data-name="Group 4264" transform="translate(-1357 -1656)">
    <path id="Path_698" data-name="Path 698" d="M18,36A18,18,0,1,1,36,18,18.021,18.021,0,0,1,18,36Z" transform="translate(1357 1656)" fill="#ff8494"/>
    <path id="Path_699" data-name="Path 699" d="M604.722-69.256v-.9c.034-.185.064-.37.1-.554a4.478,4.478,0,0,1,5.2-3.5,4.341,4.341,0,0,1,2.65,1.585c.22.262.409.55.619.835.084-.128.165-.26.254-.385a4.364,4.364,0,0,1,4.606-2.017,4.285,4.285,0,0,1,3.523,3.21c.081.269.117.551.173.828v.9a.333.333,0,0,0-.028.076,4.983,4.983,0,0,1-.854,2.257,11.605,11.605,0,0,1-2.3,2.481c-1.34,1.116-2.706,2.2-4.062,3.3-.437.354-.876.7-1.318,1.06l-.085-.064c-1.359-1.085-2.722-2.165-4.075-3.258a21.769,21.769,0,0,1-2.88-2.666,6.224,6.224,0,0,1-1.314-2.228C604.841-68.612,604.792-68.937,604.722-69.256Z" transform="translate(761.278 1741.284)" fill="#cc4556"/>
  </g>
</svg>
