<svg id="Group_4225" data-name="Group 4225" xmlns="http://www.w3.org/2000/svg" width="36" height="36" viewBox="0 0 36 36">
  <path id="Path_677" data-name="Path 677" d="M18,36A18,18,0,1,1,36,18,18.021,18.021,0,0,1,18,36ZM18,2A16,16,0,1,0,34,18,16.018,16.018,0,0,0,18,2Z" fill="#c4c4c4"/>
  <g id="Group_938" data-name="Group 938">
    <path id="Path_409" data-name="Path 409" d="M18.613,16.893h-1.2a1.6,1.6,0,0,1-1.582-1.606c0-.048,0-.1.008-.143A1.667,1.667,0,0,1,17.5,13.715h1.4a1.121,1.121,0,0,1,1.079.875.284.284,0,0,0,.292.233h1.6a.324.324,0,0,0,.321-.321,3.336,3.336,0,0,0-3.09-2.974V9.955a.324.324,0,0,0-.321-.321H17.208a.324.324,0,0,0-.321.321v1.6a3.781,3.781,0,0,0-3.265,4.14,3.9,3.9,0,0,0,3.936,3.411h1.02a1.594,1.594,0,0,1,1.592,1.6c0,.051,0,.1-.008.153A1.667,1.667,0,0,1,18.5,22.284H17.1a1.121,1.121,0,0,1-1.079-.875.284.284,0,0,0-.292-.233h-1.6a.3.3,0,0,0-.321.29.161.161,0,0,0,0,.031,3.336,3.336,0,0,0,3.09,2.974v1.574a.324.324,0,0,0,.321.321h1.574a.324.324,0,0,0,.321-.321v-1.63a3.866,3.866,0,0,0,3.265-3.353A3.786,3.786,0,0,0,19,16.912c-.125-.012-.251-.019-.377-.019Z" fill="#c4c4c4"/>
  </g>
</svg>
